<?xml version="1.0" encoding="utf-8"?>
<!-- Generator: Adobe Illustrator 22.1.0, SVG Export Plug-In . SVG Version: 6.00 Build 0)  -->
<svg version="1.1" id="Layer_1" xmlns="http://www.w3.org/2000/svg" xmlns:xlink="http://www.w3.org/1999/xlink" x="0px" y="0px"
	 viewBox="0 0 32 32" style="enable-background:new 0 0 32 32;" xml:space="preserve">
<title>visual-studio-code</title>
<path d="M30.9,3.4l-6.6-3.2c-0.8-0.4-1.7-0.2-2.3,0.4L9.4,12.2L3.9,8C3.4,7.6,2.7,7.6,2.2,8.1L0.4,9.7c-0.6,0.5-0.6,1.4,0,2L5.2,16
	l-4.8,4.3c-0.6,0.5-0.6,1.4,0,2l1.8,1.6c0.5,0.4,1.2,0.5,1.7,0.1l5.5-4.2L22,31.3c0.6,0.6,1.5,0.8,2.3,0.4l6.6-3.2
	c0.7-0.3,1.1-1,1.1-1.8V5.2C32,4.5,31.6,3.8,30.9,3.4L30.9,3.4z M24,23.3L14.4,16L24,8.7V23.3z"/>
</svg>
